Coordinates
version=1
nRows=23
nColumns=38
inDegrees=no

Units are S.I. units (second, meters, Newtons, ...)
If the header above contains a line with 'inDegrees', this indicates whether rotational values are in degrees (yes) or radians (no).

endheader
time	pelvis_tilt	pelvis_list	pelvis_rotation	pelvis_tx	pelvis_ty	pelvis_tz	hip_flexion_r	hip_adduction_r	hip_rotation_r	knee_angle_r	ankle_angle_r	subtalar_angle_r	mtp_angle_r	hip_flexion_l	hip_adduction_l	hip_rotation_l	knee_angle_l	ankle_angle_l	subtalar_angle_l	mtp_angle_l	lumbar_extension	lumbar_bending	lumbar_rotation	arm_flex_r	arm_add_r	arm_rot_r	elbow_flex_r	pro_sup_r	wrist_flex_r	wrist_dev_r	arm_flex_l	arm_add_l	arm_rot_l	elbow_flex_l	pro_sup_l	wrist_flex_l	wrist_dev_l
0	0.649712	1.47462	-2.11856	0.667934	1.86986	0.936395	-0.123278	-0.11243	-0.0127793	0.0874653	0.114316	0	0	-0.0965824	0.057104	-0.238516	0.0852895	0.0769659	0	0	-0.195058	-0.0821005	-0.0697472	0.00667145	-0.258223	0.528438	0.574563	1.47287	0	0	0.0445408	-0.389772	0.389395	0.740914	1.50693	0	0
0.01	0.630056	1.47026	-2.09939	0.669678	1.8691	0.936568	-0.129753	-0.115179	-0.0147024	0.0871773	0.115501	0	0	-0.102674	0.0596806	-0.237882	0.0861964	0.0792541	0	0	-0.201832	-0.0809567	-0.0674028	0.0147495	-0.235809	0.455004	0.53249	1.51881	0	0	0.0407647	-0.385166	0.392304	0.734717	1.50942	0	0
0.02	0.605866	1.47949	-2.07302	0.67156	1.86816	0.935299	-0.1235	-0.109754	-0.0152593	0.0882821	0.116935	0	0	-0.0930779	0.0540123	-0.232697	0.0936596	0.0882352	0	0	-0.194231	-0.0736243	-0.0657732	0.0102586	-0.238659	0.452997	0.531911	1.536	0	0	0.0345339	-0.38064	0.396614	0.728392	1.51102	0	0
0.03	0.500777	1.50014	-1.9626	0.673832	1.86729	0.932563	-0.107882	-0.0930445	-0.0175605	0.091585	0.119213	0	0	-0.070299	0.0368427	-0.223866	0.110877	0.108119	0	0	-0.177177	-0.0544761	-0.0651828	0.002836	-0.244687	0.446134	0.53836	1.54786	0	0	0.027328	-0.374061	0.401304	0.720989	1.51238	0	0
0.04	0.190969	1.52477	-1.64548	0.676131	1.86644	0.928933	-0.0871102	-0.0687314	-0.0206561	0.0957524	0.121204	0	0	-0.0309722	0.012316	-0.223901	0.148026	0.137653	0	0	-0.15526	-0.0277579	-0.0679009	-0.00421622	-0.252805	0.445035	0.54368	1.55902	0	0	0.0161723	-0.367754	0.402623	0.716897	1.5129	0	0
0.05	0.261849	1.52952	-1.71308	0.678924	1.86523	0.928345	-0.0822098	-0.0751893	-0.0284449	0.0997548	0.124972	0	0	-0.0249018	0.0175699	-0.206336	0.153523	0.14069	0	0	-0.151205	-0.0308693	-0.0650224	0.0532993	-0.200052	-0.210193	0.393009	0.0626813	0	0	0.0124065	-0.363629	0.410879	0.708641	1.51261	0	0
0.06	0.471231	1.50952	-1.92685	0.679372	1.86349	0.930881	-0.102393	-0.0933423	-0.0298105	0.0985688	0.125168	0	0	-0.0617996	0.0357465	-0.216165	0.121516	0.121921	0	0	-0.168335	-0.0494638	-0.0657202	-0.00887806	-0.246918	0.421245	0.541624	1.5053	0	0	0.00189363	-0.365309	0.404222	0.705747	1.51383	0	0
0.07	0.480281	1.50939	-1.93508	0.681192	1.86205	0.930733	-0.103127	-0.0963464	-0.0332602	0.101306	0.126846	0	0	-0.0642358	0.0382789	-0.215159	0.12041	0.122971	0	0	-0.167711	-0.0507853	-0.064182	-0.0132803	-0.246545	0.410008	0.542021	1.50538	0	0	-0.00623965	-0.362861	0.405741	0.701971	1.51378	0	0
0.08	0.510965	1.51055	-1.96514	0.683788	1.8606	0.93024	-0.100803	-0.101694	-0.0378963	0.106613	0.130312	0	0	-0.0642694	0.0422759	-0.200524	0.122281	0.125703	0	0	-0.164904	-0.051346	-0.062414	-0.0191632	-0.249481	0.401672	0.544917	1.50599	0	0	-0.0142048	-0.357935	0.406218	0.694362	1.5127	0	0
0.09	0.542453	1.51258	-1.99656	0.685363	1.85901	0.92995	-0.0962284	-0.104838	-0.0407277	0.114257	0.13362	0	0	-0.0650428	0.0451551	-0.198908	0.119249	0.125511	0	0	-0.162602	-0.0553322	-0.0538926	0.0266301	-0.201696	-0.191853	0.424363	0.136822	0	0	-0.0171929	-0.357147	0.416133	0.687384	1.50363	0	0
0.1	0.596261	1.49101	-2.05883	0.684706	1.85728	0.932546	-0.112922	-0.119304	-0.0363663	0.119264	0.133853	0	0	-0.0828015	0.0579693	-0.22185	0.127077	0.122941	0	0	-0.181107	-0.0731477	-0.0517004	-0.0247495	-0.24002	0.381946	0.538632	1.51381	0	0	-0.0280995	-0.360604	0.405787	0.682083	1.50812	0	0
0.11	0.501393	1.50848	-1.95606	0.687882	1.85633	0.930001	-0.0947134	-0.107403	-0.0440489	0.132985	0.139052	0	0	-0.0741812	0.0472433	-0.215818	0.117783	0.128836	0	0	-0.166151	-0.0565695	-0.0541333	-0.0334847	-0.247496	0.38074	0.547852	1.52143	0	0	-0.0368031	-0.354851	0.406702	0.674739	1.50881	0	0
0.12	0.514753	1.50909	-1.96895	0.689703	1.85488	0.929679	-0.0877472	-0.110666	-0.0481196	0.148401	0.144499	0	0	-0.0757736	0.0497559	-0.214899	0.116832	0.130324	0	0	-0.164254	-0.058207	-0.0514516	-0.0394701	-0.249004	0.379053	0.55	1.52903	0	0	-0.0439738	-0.352722	0.405869	0.667605	1.50841	0	0
0.13	0.5446	1.51093	-1.99955	0.692285	1.85332	0.929023	-0.0770155	-0.116118	-0.0516803	0.167864	0.151795	0	0	-0.0753514	0.0536151	-0.200553	0.11852	0.133301	0	0	-0.160598	-0.0584906	-0.0493121	-0.0450043	-0.252849	0.375414	0.552707	1.53622	0	0	-0.0532688	-0.348312	0.402443	0.659201	1.50781	0	0
0.14	0.564976	1.5102	-2.02049	0.693944	1.85177	0.9287	-0.0679221	-0.120501	-0.0540567	0.189203	0.158643	0	0	-0.0788163	0.057056	-0.199982	0.116233	0.133511	0	0	-0.160185	-0.0612755	-0.0474715	-0.0496947	-0.252251	0.360645	0.558369	1.53246	0	0	-0.0625216	-0.347478	0.399	0.654656	1.50739	0	0
0.15	0.561317	1.50762	-2.01804	0.694783	1.8501	0.92873	-0.0607251	-0.122806	-0.0537772	0.211189	0.164084	0	0	-0.0860654	0.0593633	-0.213174	0.11011	0.131634	0	0	-0.162009	-0.0653043	-0.0444445	-0.0542006	-0.249173	0.350157	0.56007	1.53071	0	0	-0.0714338	-0.349293	0.396694	0.653279	1.50669	0	0
0.16	0.578786	1.50604	-2.03512	0.6966	1.84854	0.928439	-0.0504608	-0.127792	-0.0566305	0.236729	0.171124	0	0	-0.0902701	0.0632421	-0.211226	0.107891	0.131499	0	0	-0.162089	-0.0683918	-0.0432337	-0.0581971	-0.249203	0.350178	0.557982	1.53928	0	0	-0.0802421	-0.349296	0.393803	0.650059	1.50418	0	0
0.17	0.605045	1.50447	-2.06087	0.698431	1.84696	0.9281	-0.038571	-0.133702	-0.0595817	0.264815	0.17857	0	0	-0.0944661	0.06775	-0.209358	0.105013	0.131195	0	0	-0.161827	-0.0720235	-0.042733	-0.0618851	-0.249039	0.346622	0.557925	1.55177	0	0	-0.0896188	-0.349521	0.389031	0.649626	1.496	0	0
0.18	0.691735	1.50575	-2.14494	0.701387	1.84548	0.927303	-0.0196801	-0.144293	-0.0679397	0.298026	0.188076	0	0	-0.0944645	0.0756176	-0.188843	0.101449	0.129811	0	0	-0.157477	-0.0734613	-0.0484368	-0.0644625	-0.25106	0.338488	0.56162	1.5708	0	0	-0.0731031	-0.305009	0.0260406	0.608595	0.39798	0	0
0.19	0.672929	1.50264	-2.12754	0.702162	1.84372	0.927335	-0.00951671	-0.146583	-0.0657244	0.327128	0.192205	0	0	-0.102784	0.0774854	-0.204369	0.095729	0.129355	0	0	-0.16003	-0.0772135	-0.0461686	-0.0671081	-0.247961	0.333239	0.560983	1.5708	0	0	-0.0807638	-0.307767	0.017773	0.603397	0.377726	0	0
0.2	0.597075	1.51675	-2.04456	0.705486	1.84288	0.924676	0.0180766	-0.140362	-0.074604	0.365276	0.199874	0	0	-0.0803087	0.0684218	-0.193972	0.120863	0.149104	0	0	-0.147557	-0.0657151	-0.0455368	-0.0775564	-0.2538	0.321975	0.572173	1.5708	0	0	-0.116374	-0.350298	0.395249	0.642501	1.47075	0	0
0.21	0.711398	1.49622	-2.16345	0.706847	1.84088	0.926646	0.0186055	-0.163475	-0.0742979	0.39716	0.202839	0	0	-0.118817	0.0896609	-0.179632	0.0814512	0.125872	0	0	-0.161962	-0.0861708	-0.0428704	-0.077486	-0.24729	0.304534	0.569083	1.55839	0	0	-0.123519	-0.352841	0.387964	0.637923	1.48344	0	0
0.22	0.711517	1.49418	-2.16241	0.708718	1.83938	0.926409	0.0332401	-0.169035	-0.0749429	0.432202	0.204354	0	0	-0.125945	0.093128	-0.175273	0.0753005	0.125317	0	0	-0.163206	-0.0881715	-0.0437862	-0.0799118	-0.246911	0.297687	0.571886	1.55123	0	0	-0.131575	-0.353596	0.382435	0.635256	1.48468	0	0
